<svg width="124" height="170" viewBox="0 0 124 170" fill="none" xmlns="http://www.w3.org/2000/svg">
<path d="M68.965 87.563C85.73 80.096 97.411 58.519 93.003 35.373C88.595 12.227 71.579 -4.06099 42.493 0.90501C24.741 3.93601 3.08399 19.33 9.25799 51.383C15.432 83.436 68.965 87.563 68.965 87.563Z" fill="#895A5C"/>
<path d="M123.218 169.787H0.258C0.258 169.787 -1.131 144.874 13.321 124.544C28.306 103.461 45.545 104.311 45.545 104.311C45.545 123.683 68.238 125.825 71.583 104.311C71.583 104.311 98.242 103.079 114.763 129.561C123.399 143.412 123.218 169.787 123.218 169.787Z" fill="#D66572"/>
<path d="M74.027 99.804C85.173 102.699 78.676 125.318 59.894 126.583C41.112 127.849 36.355 113.498 43.679 104.302C51.004 95.105 74.027 99.804 74.027 99.804Z" fill="#D88D48"/>
<path d="M86.026 137.946C84.589 142.013 83.834 146.794 83.467 151.392C67.085 151.891 31.692 152.524 16.727 149.272C17.094 146.173 17.614 143.003 18.358 139.985C48.155 144.165 75.76 139.914 86.026 137.946Z" fill="white"/>
<path d="M93.021 128.532C80.012 135.316 83.603 169.787 83.603 169.787" stroke="#B54D5C" stroke-miterlimit="10"/>
<path d="M21.245 131.724C14.561 145.293 16.074 169.786 16.074 169.786" stroke="#B54D5C" stroke-miterlimit="10"/>
<path d="M16.074 59.839C14.279 44.411 5.558 47.717 5.045 57.635C4.532 67.553 9.91801 79.675 16.074 77.838V59.839Z" fill="#E89989"/>
<path d="M71.582 75.675V104.311C68.237 125.825 45.544 123.683 45.544 104.311V88.548L71.582 75.675Z" fill="#F1B69A"/>
<path opacity="0.3" d="M71.578 75.677V89.092C70.039 90.876 68.469 92.415 66.97 93.73C61.577 98.45 53.626 101.335 45.543 101.477V88.551L71.578 75.677Z" fill="#F1B69A"/>
<path d="M11.28 43.881C10.51 53.634 9.73199 76.403 21.245 89.834C32.757 103.265 50.723 102.086 61.719 92.473C69.116 86.006 77.938 71.162 77.476 55.873C76.898 36.717 68.122 30.929 54.211 27.811C40.301 24.694 12.568 27.575 11.28 43.881Z" fill="#F1B69A"/>
<path opacity="0.3" d="M33.772 73.381C38.427 75.042 40.814 70.803 42.811 72.064C44.808 73.325 41.178 78.498 36.079 75.46C33.796 74.101 32.422 72.9 33.772 73.381Z" fill="#F1B69A"/>
<path d="M72.244 59.839C75.149 44.411 89.257 47.717 90.087 57.635C90.917 67.553 82.203 79.675 72.244 77.838V59.839Z" fill="#F1B69A"/>
<path opacity="0.3" d="M76.024 60.867C79.184 54.283 85.701 54.236 85.972 59.302C86.243 64.368 78.483 72.082 76.024 71.827C73.566 71.571 76.024 60.867 76.024 60.867Z" fill="#F1B69A"/>
<path d="M76.024 62.071C77.714 55.721 82.925 54.528 85.033 56.885C87.142 59.242 85.365 64.276 83.987 65.969" stroke="#E07E61" stroke-miterlimit="10" stroke-linecap="round"/>
<path d="M29.368 60.845C29.368 63.422 28.181 65.511 26.717 65.511C25.253 65.511 24.066 63.422 24.066 60.845C24.066 58.268 25.253 56.179 26.717 56.179C28.181 56.179 29.368 58.268 29.368 60.845Z" fill="#150A08"/>
<path d="M28.068 47.727C25.252 45.13 21.142 45.672 21.247 49.129C21.353 52.586 26.892 51.182 28.664 50.629C30.086 50.186 28.983 48.571 28.068 47.727Z" fill="#895A5C"/>
<path d="M51.592 60.845C51.592 63.422 52.779 65.511 54.243 65.511C55.707 65.511 56.894 63.422 56.894 60.845C56.894 58.268 55.707 56.179 54.243 56.179C52.779 56.179 51.592 58.268 51.592 60.845Z" fill="#150A08"/>
<path d="M49.561 46.753C53.729 44.704 59.946 46.165 59.893 49.693C59.84 53.221 51.44 50.561 48.75 49.603C46.593 48.835 48.207 47.419 49.561 46.753Z" fill="#895A5C"/>
<path d="M36.217 65.512C35.733 71.034 33.352 70.086 33.836 72.324C34.32 74.562 35.501 74.945 36.878 75.676" stroke="#E07E61" stroke-miterlimit="10" stroke-linecap="round"/>
<path d="M33.772 79.441C40.135 80.129 49.077 78.237 50.968 76.002" stroke="#E07E61" stroke-miterlimit="10" stroke-linecap="round"/>
<path opacity="0.3" d="M38.294 83.817C42.18 83.575 45.23 82.049 46.889 82.403C48.548 82.757 46.834 86.753 44.275 87.353C39.002 88.59 35.816 83.971 38.294 83.817Z" fill="#F1B69A"/>
<path d="M77.491 50.5C71.884 54.567 73.791 58.91 72.241 58.523C70.702 58.125 70.263 35.046 61.415 31.264C63.923 28.379 65.554 24.495 66.532 21.458C76.645 33.303 77.491 50.5 77.491 50.5Z" fill="#895A5C"/>
<path opacity="0.3" d="M77.491 50.5C71.884 54.567 73.791 58.91 72.241 58.523C70.702 58.125 70.263 35.046 61.415 31.264C63.923 28.379 65.554 24.495 66.532 21.458C76.645 33.303 77.491 50.5 77.491 50.5Z" fill="#895A5C"/>
<path d="M62.248 30.223C48.805 41.743 9.31301 47.381 15.167 35.373C21.022 23.365 40.512 22.22 50.968 21.458C69.453 20.111 62.248 30.223 62.248 30.223Z" fill="#895A5C"/>
</svg>
