<svg width="124" height="170" viewBox="0 0 124 170" fill="none" xmlns="http://www.w3.org/2000/svg">
<path d="M112.771 127.299C106.257 146.882 53.177 149.369 35.471 144.69C17.764 140.021 -1.36999 119.328 8.50801 109.766C14.227 104.231 17.244 98.226 18.59 92.345C22.484 75.189 12.035 59.113 12.035 59.113C-5.90598 47.41 8.84401 34.352 8.84401 34.352C8.84401 34.352 3.76701 19.632 17.631 8.99999C31.485 -1.64301 60.201 -5.435 82.719 17.216C105.227 39.867 105.135 62.956 94.717 83.65C84.31 104.342 119.296 107.727 112.771 127.299Z" fill="#D88D48"/>
<g opacity="0.3">
<path d="M93.036 113.996C92.995 114.567 92.934 115.158 92.832 115.78C92.832 115.78 88.275 132.376 81.629 136.576C74.993 140.766 15.134 132.203 15.736 120.643C16.327 109.093 32.454 102.64 23.871 97.197C22.444 96.29 20.619 94.577 18.591 92.345C22.485 75.189 12.036 59.113 12.036 59.113C-5.90501 47.41 8.84499 34.352 8.84499 34.352C8.84499 34.352 11.852 32.446 23.871 31.049C35.89 29.663 54.85 34.862 74.677 38.868C94.504 42.884 94.565 49.786 91.579 63.293C88.593 76.8 74.861 81.143 77.297 90.399C79.641 99.245 93.831 101.549 93.036 113.996Z" fill="#D88D48"/>
</g>
<path d="M123.025 169.314H0.0640007C0.0640007 169.314 -1.325 144.401 13.127 124.071C28.112 102.987 45.351 103.838 45.351 103.838C45.351 123.21 68.044 125.352 71.389 103.838C71.389 103.838 98.048 102.606 114.568 129.088C123.206 142.939 123.025 169.314 123.025 169.314Z" fill="#383C3F"/>
<path d="M77.301 103.829C84.199 112.896 72.051 132.666 72.051 132.666L53.603 122.519L42.178 131.252C42.178 131.252 35.916 117.954 40.098 103.83C40.098 103.83 62.438 98.927 77.301 103.829Z" fill="white"/>
<path d="M50.778 121.906V150.283H56.428V123.577C56.428 123.577 52.884 118.257 50.778 121.906Z" fill="white"/>
<path d="M92.828 128.059C79.819 134.844 83.411 169.314 83.411 169.314" stroke="#505254" stroke-miterlimit="10"/>
<path d="M21.052 131.251C14.368 144.82 15.881 169.314 15.881 169.314" stroke="#505254" stroke-miterlimit="10"/>
<path d="M15.881 59.366C14.086 43.938 5.36501 47.244 4.85201 57.162C4.33901 67.08 9.72501 79.202 15.881 77.365V59.366Z" fill="#E89989"/>
<path d="M71.389 75.202V103.838C68.044 125.352 45.351 123.21 45.351 103.838V88.075L71.389 75.202Z" fill="#F1B69A"/>
<path opacity="0.3" d="M71.385 75.204V88.619C69.846 90.403 68.276 91.942 66.777 93.257C61.384 97.977 53.433 100.862 45.349 101.004V88.078L71.385 75.204Z" fill="#F1B69A"/>
<path d="M11.087 43.408C10.317 53.161 9.54001 75.93 21.052 89.361C32.564 102.792 50.531 101.613 61.526 91.999C68.923 85.532 77.745 70.688 77.283 55.4C76.705 36.244 67.929 30.456 54.018 27.338C40.108 24.221 12.375 27.102 11.087 43.408Z" fill="#F1B69A"/>
<path opacity="0.3" d="M33.579 72.908C38.234 74.569 40.621 70.33 42.618 71.591C44.615 72.852 40.985 78.025 35.886 74.988C33.603 73.628 32.229 72.427 33.579 72.908Z" fill="#F1B69A"/>
<path d="M72.051 59.366C74.956 43.938 89.064 47.244 89.894 57.162C90.724 67.08 82.01 79.202 72.051 77.365V59.366Z" fill="#F1B69A"/>
<path opacity="0.3" d="M75.831 60.394C78.991 53.81 85.508 53.762 85.779 58.828C86.05 63.894 78.29 71.608 75.831 71.353C73.373 71.098 75.831 60.394 75.831 60.394Z" fill="#F1B69A"/>
<path d="M75.831 61.598C77.521 55.248 82.732 54.055 84.84 56.412C86.949 58.769 85.172 63.802 83.794 65.496" stroke="#E07E61" stroke-miterlimit="10" stroke-linecap="round"/>
<path d="M26.524 65.038C27.9881 65.038 29.175 62.949 29.175 60.372C29.175 57.795 27.9881 55.706 26.524 55.706C25.0599 55.706 23.873 57.795 23.873 60.372C23.873 62.949 25.0599 65.038 26.524 65.038Z" fill="#150A08"/>
<path d="M27.875 47.254C25.059 44.657 20.949 45.199 21.054 48.656C21.16 52.113 26.699 50.709 28.471 50.156C29.893 49.713 28.79 48.098 27.875 47.254Z" fill="#D88D48"/>
<path d="M54.051 65.038C55.5151 65.038 56.702 62.949 56.702 60.372C56.702 57.795 55.5151 55.706 54.051 55.706C52.5869 55.706 51.4 57.795 51.4 60.372C51.4 62.949 52.5869 65.038 54.051 65.038Z" fill="#150A08"/>
<path d="M49.369 46.28C53.537 44.231 59.754 45.692 59.701 49.22C59.648 52.748 51.249 50.088 48.558 49.13C46.4 48.362 48.014 46.946 49.369 46.28Z" fill="#383C3F"/>
<path d="M36.024 65.039C35.54 70.561 33.159 69.613 33.643 71.851C34.127 74.089 35.308 74.472 36.685 75.203" stroke="#E07E61" stroke-miterlimit="10" stroke-linecap="round"/>
<path d="M33.579 78.968C39.942 79.656 48.884 77.764 50.775 75.529" stroke="#E07E61" stroke-miterlimit="10" stroke-linecap="round"/>
<path opacity="0.3" d="M38.101 83.344C41.987 83.102 45.037 81.576 46.696 81.93C48.355 82.284 46.641 86.28 44.082 86.88C38.809 88.117 35.623 83.498 38.101 83.344Z" fill="#F1B69A"/>
<path d="M54.051 55.706C56.652 56.123 59.701 55.706 59.701 55.706L55.326 58.939L54.051 55.706Z" fill="#150A08"/>
<path d="M26.697 55.706C24.096 56.123 21.047 55.706 21.047 55.706L25.421 58.939L26.697 55.706Z" fill="#150A08"/>
<path d="M77.301 50.026C74.621 52.709 72.051 59.366 72.051 59.366L73.303 38.871C73.303 38.871 77.319 44.651 77.301 50.026Z" fill="#D88D48"/>
<path opacity="0.3" d="M77.301 50.026C74.621 52.709 72.051 59.366 72.051 59.366L73.303 38.871C73.303 38.871 77.319 44.651 77.301 50.026Z" fill="#D88D48"/>
<path d="M10.7 24.54C5.743 42.749 53.299 53.098 64.234 53.009C75.169 52.92 69.722 43.062 69.722 43.062C69.722 43.062 77.871 51.98 80.999 43.405C84.127 34.83 76.088 9.44802 47.352 9.10502C18.616 8.76302 13.128 15.623 10.7 24.54Z" fill="#D88D48"/>
</svg>
