<svg width="148" height="172" viewBox="0 0 148 172" fill="none" xmlns="http://www.w3.org/2000/svg">
<path d="M146.611 134.518C144.929 140.257 139.363 146.445 129.73 152.286C104.633 167.506 30.146 178.545 9.92098 162.959C-10.314 147.383 14.519 115.343 20.941 105.832C29.341 93.395 9.92098 67.493 9.92098 67.493C-6.02202 51.743 -0.314017 29.184 13.02 21.936C14.569 21.08 16.231 20.448 17.974 20.05C17.974 20.05 22.612 -1.959 51.787 1.303C80.962 4.555 94.53 19.234 98.557 37.104C102.583 54.984 91.197 72.905 93.042 87.493C94.887 102.091 98.129 107.891 125.245 113.681C141.952 117.26 149.302 125.303 146.611 134.518Z" fill="#895A5C"/>
<path opacity="0.3" d="M146.611 134.518C144.929 140.257 139.363 146.445 129.73 152.286C104.633 167.506 30.146 178.545 9.92098 162.959C-10.314 147.383 14.519 115.343 20.941 105.832C29.341 93.395 9.92098 67.493 9.92098 67.493C-6.02202 51.743 -0.314017 29.184 13.02 21.936C14.569 22.721 16.027 23.689 17.668 24.26C22.734 25.983 28.341 23.414 32.286 19.805C33.57 18.622 34.926 17.246 36.669 17.124C37.658 17.063 38.616 17.42 39.534 17.766C49.504 21.528 59.473 25.299 69.433 29.061C74.306 30.906 79.403 32.904 82.746 36.9C86.762 41.701 87.435 48.388 87.721 54.637C88.078 62.17 88.098 69.867 85.866 77.084C84.347 82.008 81.809 86.595 80.626 91.61C79.433 96.625 79.892 102.497 83.592 106.085C86.263 108.664 90.065 109.581 93.633 110.57C99.28 112.14 104.805 114.107 110.167 116.482C111.197 116.941 112.247 117.42 113.052 118.215C114.204 119.357 114.724 120.998 114.938 122.598C115.509 126.686 114.449 130.814 114.479 134.933C114.51 139.051 116.11 143.69 119.943 145.198C121.961 146.003 124.235 145.769 126.355 145.31C131.656 144.158 136.049 141.579 140.3 138.327C141.677 137.291 144.226 135.059 146.611 134.518Z" fill="#895A5C"/>
<path d="M123.411 171.314H0.450018C0.450018 171.314 -0.938993 146.401 13.513 126.071C28.498 104.987 45.737 105.838 45.737 105.838C45.737 125.21 68.43 127.352 71.775 105.838C71.775 105.838 98.434 104.606 114.955 131.088C123.592 144.939 123.411 171.314 123.411 171.314Z" fill="#D88D48"/>
<path d="M80.648 106.759L51.698 147.495L35.517 107.946C35.517 107.946 55.087 98.699 80.648 106.759Z" fill="white"/>
<path d="M93.214 130.059C80.205 136.844 83.797 171.314 83.797 171.314" stroke="#C66B47" stroke-miterlimit="10"/>
<path d="M21.438 133.251C14.754 146.82 16.267 171.314 16.267 171.314" stroke="#C66B47" stroke-miterlimit="10"/>
<path d="M16.267 61.366C14.472 45.938 5.751 49.244 5.238 59.162C4.725 69.08 10.111 81.202 16.267 79.365V61.366Z" fill="#E89989"/>
<path d="M71.775 77.202V105.838C68.43 127.352 45.737 125.21 45.737 105.838V90.075L71.775 77.202Z" fill="#F1B69A"/>
<path opacity="0.3" d="M71.771 77.204V90.619C70.232 92.403 68.662 93.942 67.163 95.257C61.77 99.977 53.819 102.862 45.735 103.004V90.078L71.771 77.204Z" fill="#F1B69A"/>
<path d="M11.473 45.408C10.703 55.161 9.92599 77.93 21.438 91.361C32.95 104.792 50.916 103.613 61.912 93.999C69.309 87.532 78.131 72.688 77.669 57.4C77.091 38.244 68.315 32.456 54.404 29.338C40.494 26.221 12.761 29.102 11.473 45.408Z" fill="#F1B69A"/>
<path opacity="0.3" d="M33.965 74.908C38.62 76.569 41.007 72.33 43.004 73.591C45.001 74.852 41.371 80.025 36.272 76.988C33.989 75.628 32.615 74.427 33.965 74.908Z" fill="#F1B69A"/>
<path d="M72.437 61.366C75.342 45.938 89.45 49.244 90.28 59.162C91.11 69.08 82.396 81.202 72.437 79.365V61.366Z" fill="#F1B69A"/>
<path opacity="0.3" d="M76.217 62.394C79.377 55.81 85.894 55.762 86.165 60.828C86.436 65.894 78.676 73.608 76.217 73.353C73.759 73.098 76.217 62.394 76.217 62.394Z" fill="#F1B69A"/>
<path d="M76.217 63.598C77.907 57.248 83.118 56.055 85.226 58.412C87.335 60.769 85.558 65.802 84.18 67.496" stroke="#E07E61" stroke-miterlimit="10" stroke-linecap="round"/>
<path d="M26.909 67.038C28.3731 67.038 29.56 64.949 29.56 62.372C29.56 59.795 28.3731 57.706 26.909 57.706C25.4449 57.706 24.258 59.795 24.258 62.372C24.258 64.949 25.4449 67.038 26.909 67.038Z" fill="#150A08"/>
<path d="M28.261 49.254C25.445 46.657 21.335 47.199 21.44 50.656C21.546 54.113 27.085 52.709 28.857 52.156C30.279 51.713 29.176 50.098 28.261 49.254Z" fill="#383C3F"/>
<path d="M54.437 67.038C55.9011 67.038 57.088 64.949 57.088 62.372C57.088 59.795 55.9011 57.706 54.437 57.706C52.9729 57.706 51.786 59.795 51.786 62.372C51.786 64.949 52.9729 67.038 54.437 67.038Z" fill="#150A08"/>
<path d="M49.754 48.28C53.922 46.231 60.139 47.692 60.086 51.22C60.033 54.748 51.633 52.088 48.943 51.13C46.786 50.362 48.399 48.946 49.754 48.28Z" fill="#895A5C"/>
<path d="M36.41 67.039C35.926 72.561 33.545 71.613 34.029 73.851C34.513 76.089 35.693 76.472 37.071 77.203" stroke="#E07E61" stroke-miterlimit="10" stroke-linecap="round"/>
<path d="M33.965 80.968C40.328 81.656 49.27 79.764 51.161 77.529" stroke="#E07E61" stroke-miterlimit="10" stroke-linecap="round"/>
<path opacity="0.3" d="M38.487 85.344C42.373 85.102 45.423 83.576 47.082 83.93C48.741 84.284 47.027 88.28 44.468 88.88C39.195 90.117 36.009 85.498 38.487 85.344Z" fill="#F1B69A"/>
<path d="M54.437 57.706C57.038 58.123 60.087 57.706 60.087 57.706L55.713 60.939L54.437 57.706Z" fill="#150A08"/>
<path d="M27.083 57.706C24.482 58.123 21.433 57.706 21.433 57.706L25.807 60.939L27.083 57.706Z" fill="#150A08"/>
<path d="M53.989 70.29C59.1534 70.29 63.34 66.1034 63.34 60.939C63.34 55.7746 59.1534 51.588 53.989 51.588C48.8246 51.588 44.638 55.7746 44.638 60.939C44.638 66.1034 48.8246 70.29 53.989 70.29Z" stroke="white" stroke-miterlimit="10"/>
<path d="M25.606 70.29C30.0259 70.29 33.609 66.1034 33.609 60.939C33.609 55.7746 30.0259 51.588 25.606 51.588C21.1861 51.588 17.603 55.7746 17.603 60.939C17.603 66.1034 21.1861 70.29 25.606 70.29Z" stroke="white" stroke-miterlimit="10"/>
<path d="M44.638 60.939C42.49 55.314 33.035 57.292 33.588 62.373" stroke="white" stroke-miterlimit="10"/>
<path d="M63.34 58.584L77.687 51.588" stroke="white" stroke-miterlimit="10"/>
<path d="M44.488 26.993C44.529 28.869 44.468 30.642 44.325 32.314C42.103 59.369 18.952 62.784 9.30898 60.266C8.96198 60.184 8.63598 60.083 8.32998 59.981C-1.67002 56.597 3.957 34.894 17.484 26.892C30.247 19.348 41.878 13.619 43.866 19.919C43.999 20.296 44.08 20.714 44.131 21.183C44.346 23.211 44.458 25.158 44.488 26.993Z" fill="#895A5C"/>
<path d="M76.217 53.881C72.788 56.961 71.762 62.573 71.762 62.573C71.762 62.573 70.885 43.738 76.136 39.571L78.361 51.631L76.217 53.881Z" fill="#895A5C"/>
<path d="M78.363 51.631C72.807 51.804 52.124 44.821 44.325 32.314C43.143 30.438 42.266 28.43 41.766 26.31C41.593 25.576 41.46 24.822 41.389 24.057C41.124 21.417 42.041 20.204 43.866 19.918C48.107 19.245 57.281 23.506 68.23 26.167C73.938 27.553 77.72 31.284 79.892 35.474C83.694 42.783 82.603 51.499 78.363 51.631Z" fill="#895A5C"/>
<path opacity="0.3" d="M78.363 51.631C72.807 51.804 52.124 44.821 44.325 32.314C43.542 41.84 39.596 51.085 31.32 56.37C28.226 58.346 24.736 59.671 21.138 60.371C19.548 60.68 17.965 60.751 16.362 60.926C14.619 61.116 11.021 60.446 9.67401 60.965C13.881 59.346 18.043 57.612 22.155 55.766C25.813 54.124 29.491 52.353 32.447 49.643C36.443 45.978 38.699 40.949 40.095 35.797C41.106 32.065 40.711 25.382 43.081 22.431C43.477 23.959 43.852 25.523 44.488 26.994C48.423 36.097 59.473 41.663 69.698 41.01C72.909 40.806 76.304 40.011 78.526 37.677C79.117 37.055 79.586 36.291 79.892 35.475C83.694 42.783 82.603 51.499 78.363 51.631Z" fill="#895A5C"/>
<path d="M35.518 107.946C31.767 104.717 26.383 105.462 21.439 111.05C16.494 116.638 51.873 159.105 51.873 159.105C51.873 159.105 89.507 124.026 93.215 117.784C96.923 111.541 95.804 109.56 93.215 107.697C90.627 105.834 82.35 103.817 80.649 106.758C78.948 109.699 51.699 147.494 51.699 147.494L35.518 107.946Z" fill="#E8A670"/>
</svg>
