<svg width="126" height="167" viewBox="0 0 126 167" fill="none" xmlns="http://www.w3.org/2000/svg">
<path d="M105.575 120.547C105.279 123.187 104.994 125.318 104.77 126.827C102.517 142.189 37.551 143.382 32.373 138.346C29.876 135.92 24.0139 125.593 17.9279 112.229C11.4239 97.917 4.66598 80.128 1.53598 64.848C-6.66002 24.796 23.626 -18.049 72.261 8.037C111.875 29.281 108.307 96.327 105.575 120.547Z" fill="#383C3F"/>
<path opacity="0.3" d="M105.575 120.547C105.279 123.187 104.994 125.318 104.77 126.827C102.517 142.189 37.551 143.382 32.373 138.346C29.876 135.92 24.014 125.593 17.928 112.229C19.274 108.121 21.017 104.115 21.119 99.823C21.211 95.48 19.61 91.301 18.428 87.121C12.628 66.601 17.46 43.379 30.967 26.875C33.597 23.664 36.727 20.575 40.723 19.464C45.239 18.21 50.112 19.729 54.138 22.125C58.165 24.521 61.61 27.762 65.474 30.423C72.008 34.939 79.756 37.824 85.383 43.441C87.412 45.47 89.134 47.855 90.001 50.577C91 53.696 90.816 57.04 90.623 60.292C90.215 67.305 89.808 74.309 89.4 81.322C89.084 86.786 88.768 92.321 89.91 97.673C92.007 107.53 100.723 112.535 105.575 120.547Z" fill="#383C3F"/>
<path d="M20.304 78.876C20.304 82.315 17.516 85.104 14.076 85.104C10.637 85.104 7.84799 82.316 7.84799 78.876C7.84799 75.437 10.636 72.648 14.076 72.648C17.516 72.649 20.304 75.437 20.304 78.876Z" stroke="white" stroke-miterlimit="10"/>
<path d="M125.604 166.314H2.64393C2.64393 166.314 1.25492 141.401 15.7069 121.071C30.6919 99.987 47.931 100.838 47.931 100.838C47.931 120.21 70.6239 122.352 73.9689 100.838C73.9689 100.838 100.628 99.606 117.148 126.088C125.785 139.939 125.604 166.314 125.604 166.314Z" fill="#D76A40"/>
<path d="M18.313 116.057C41.936 130.504 113.188 120.478 113.188 120.478C113.188 120.478 103.23 101.542 60.9489 98.461C31.7319 96.331 18.313 116.057 18.313 116.057Z" fill="#F1B69A"/>
<path d="M95.4069 128.251C84.1709 138.177 85.99 166.314 85.99 166.314" stroke="#BA4D2B" stroke-miterlimit="10"/>
<path d="M23.6309 128.251C16.9469 141.82 18.46 166.314 18.46 166.314" stroke="#BA4D2B" stroke-miterlimit="10"/>
<path d="M18.46 56.366C16.665 40.938 7.94402 44.244 7.43102 54.162C6.91802 64.08 12.304 76.202 18.46 74.365V56.366Z" fill="#E89989"/>
<path d="M73.968 72.202V100.838C70.623 122.352 47.93 120.21 47.93 100.838V85.075L73.968 72.202Z" fill="#F1B69A"/>
<path opacity="0.3" d="M73.964 72.204V85.619C72.425 87.403 70.855 88.942 69.356 90.257C63.963 94.977 56.0119 97.862 47.9279 98.004V85.078L73.964 72.204Z" fill="#F1B69A"/>
<path d="M13.666 40.408C12.896 50.161 12.1189 72.93 23.6309 86.361C35.1439 99.792 53.1099 98.613 64.1049 88.999C71.5019 82.532 80.3239 67.688 79.8619 52.4C79.2839 33.244 70.5079 27.456 56.5969 24.338C42.6869 21.221 14.954 24.102 13.666 40.408Z" fill="#F1B69A"/>
<path opacity="0.3" d="M36.158 69.908C40.813 71.569 43.2 67.33 45.197 68.591C47.194 69.852 43.564 75.025 38.465 71.988C36.182 70.628 34.808 69.427 36.158 69.908Z" fill="#F1B69A"/>
<path d="M74.63 56.366C77.535 40.938 91.644 44.244 92.473 54.162C93.302 64.08 84.589 76.202 74.63 74.365V56.366Z" fill="#F1B69A"/>
<path opacity="0.3" d="M78.4099 57.394C81.5699 50.81 88.0869 50.762 88.3579 55.828C88.6289 60.894 80.8689 68.608 78.4099 68.353C75.9509 68.098 78.4099 57.394 78.4099 57.394Z" fill="#F1B69A"/>
<path d="M78.4099 58.598C80.0999 52.248 85.311 51.055 87.419 53.412C89.528 55.769 87.751 60.802 86.373 62.496" stroke="#E07E61" stroke-miterlimit="10" stroke-linecap="round"/>
<path d="M29.102 62.038C30.5661 62.038 31.753 59.949 31.753 57.372C31.753 54.795 30.5661 52.706 29.102 52.706C27.6379 52.706 26.451 54.795 26.451 57.372C26.451 59.949 27.6379 62.038 29.102 62.038Z" fill="#150A08"/>
<path d="M30.454 44.254C27.638 41.657 23.528 42.199 23.633 45.656C23.739 49.113 29.278 47.709 31.05 47.156C32.472 46.713 31.369 45.098 30.454 44.254Z" fill="#383C3F"/>
<path d="M56.63 62.038C58.0941 62.038 59.281 59.949 59.281 57.372C59.281 54.795 58.0941 52.706 56.63 52.706C55.1659 52.706 53.979 54.795 53.979 57.372C53.979 59.949 55.1659 62.038 56.63 62.038Z" fill="#150A08"/>
<path d="M51.948 43.28C56.116 41.231 62.333 42.692 62.28 46.22C62.227 49.748 53.827 47.088 51.137 46.13C48.979 45.362 50.592 43.946 51.948 43.28Z" fill="#383C3F"/>
<path d="M38.603 62.039C38.119 67.561 35.7379 66.613 36.2219 68.851C36.7059 71.089 37.8869 71.472 39.2639 72.203" stroke="#E07E61" stroke-miterlimit="10" stroke-linecap="round"/>
<path d="M36.158 75.968C42.521 76.656 51.463 74.764 53.354 72.529" stroke="#E07E61" stroke-miterlimit="10" stroke-linecap="round"/>
<path opacity="0.3" d="M40.68 80.344C44.566 80.102 47.616 78.576 49.275 78.93C50.934 79.284 49.22 83.28 46.661 83.88C41.388 85.117 38.202 80.498 40.68 80.344Z" fill="#F1B69A"/>
<path d="M56.63 52.706C59.231 53.123 62.28 52.706 62.28 52.706L57.906 55.939L56.63 52.706Z" fill="#150A08"/>
<path d="M29.276 52.706C26.675 53.123 23.6259 52.706 23.6259 52.706L28 55.939L29.276 52.706Z" fill="#150A08"/>
<path d="M84.086 41.341C83.668 46.897 81.741 51.331 79.866 52.401C71.313 57.274 36.644 44.195 38.988 17.252C39.121 15.631 39.396 13.949 39.824 12.216C41.547 5.22301 56.246 6.976 72.71 17.425C82.313 23.532 84.678 33.543 84.086 41.341Z" fill="#383C3F"/>
<path d="M12.688 54.318C8.36597 53.503 4.88996 44.868 5.52196 35.857C5.93996 30.097 8.03998 24.175 12.688 20.056C24.594 9.50499 36.389 9.99497 37.714 14.847C37.877 15.459 38.02 16.07 38.142 16.682C42.179 37.294 19.569 55.633 12.688 54.318Z" fill="#383C3F"/>
<path d="M89.806 78.876C89.806 82.315 87.018 85.104 83.578 85.104C80.139 85.104 77.351 82.316 77.351 78.876C77.351 75.437 80.139 72.648 83.578 72.648C87.018 72.649 89.806 75.437 89.806 78.876Z" stroke="white" stroke-miterlimit="10"/>
<path opacity="0.3" d="M38.142 16.682C42.179 37.294 19.569 55.633 12.688 54.318C5.93796 53.044 5.59494 42.556 5.59494 37.629C6.37394 40.51 7.86597 43.195 9.90097 45.379C10.711 46.248 11.642 47.06 12.776 47.412C14.374 47.908 16.106 47.417 17.648 46.768C23.471 44.321 25.3849 39.795 28.9569 35.153C33.1779 29.669 36.328 23.359 38.142 16.682Z" fill="#383C3F"/>
<path opacity="0.3" d="M84.086 41.341C83.668 46.897 81.741 51.331 79.866 52.401C71.313 57.274 36.644 44.195 38.988 17.252C40.537 20.086 42.882 22.461 45.186 24.765C51.119 30.708 57.093 36.692 63.861 41.666C66.878 43.888 70.62 46.202 74.524 45.927C78.316 45.652 79.815 41.972 83.026 41.411C83.404 41.351 83.76 41.32 84.086 41.341Z" fill="#383C3F"/>
<path d="M15.706 121.07C36.226 132.95 92.073 134.034 117.148 126.088C117.148 126.088 112.805 117.535 110.952 117.449C109.099 117.363 57.379 128.187 20.304 113.617C20.304 113.617 15.45 115.815 15.706 121.07Z" fill="#E07B5C"/>
</svg>
