<svg width="124" height="184" viewBox="0 0 124 184" fill="none" xmlns="http://www.w3.org/2000/svg">
<path d="M95.376 62.413C91.298 83.82 63.805 104.667 63.805 104.667L11.153 63.32C-2.741 52.382 1.05099 45.103 7.45299 44.227C7.45299 44.227 -3.60702 32.29 3.67098 20.934C10.949 9.588 30.083 -2.349 44.385 1.137C58.096 4.491 45.527 9.18 44.456 9.567C45.924 9.22 69.248 3.848 81.389 15.408C93.917 27.345 82.561 29.384 82.561 29.384C82.561 29.384 88.881 33.737 92.847 42.004C95.376 47.255 96.956 54.095 95.376 62.413Z" fill="#D88D48"/>
<path opacity="0.3" d="M95.376 62.413C91.298 83.82 63.805 104.667 63.805 104.667L11.153 63.32C-2.741 52.382 1.05099 45.103 7.45299 44.227C15.129 49.609 23.294 34.135 37.066 35.338C50.848 36.541 75.191 53.697 92.847 42.005C95.376 47.255 96.956 54.095 95.376 62.413Z" fill="#D88D48"/>
<path d="M123.411 183.787H0.450018C0.450018 183.787 -0.938993 158.874 13.513 138.544C28.498 117.461 45.737 118.311 45.737 118.311C45.737 137.683 68.43 139.825 71.775 118.311C71.775 118.311 98.434 117.079 114.955 143.561C123.592 157.412 123.411 183.787 123.411 183.787Z" fill="#BED85B"/>
<path d="M93.214 142.532C80.205 149.316 83.797 183.787 83.797 183.787" stroke="#D2E583" stroke-miterlimit="10"/>
<path d="M21.438 145.724C14.754 159.293 16.267 183.786 16.267 183.786" stroke="#D2E583" stroke-miterlimit="10"/>
<path d="M69.646 111.665C90.292 113.004 97.412 122.259 96.48 126.633C95.548 131.007 77.149 131.806 69.646 140.662C60.087 151.947 48.365 149.768 45.738 140.662C42.564 129.659 27.2 130.458 25.489 126.025C23.777 121.592 37.071 109.553 69.646 111.665Z" fill="#383C3F"/>
<path d="M16.267 73.839C14.472 58.411 5.751 61.717 5.238 71.635C4.725 81.553 10.111 93.675 16.267 91.838V73.839Z" fill="#E89989"/>
<path d="M71.775 89.675V118.311C68.43 139.825 45.737 137.683 45.737 118.311V102.548L71.775 89.675Z" fill="#F1B69A"/>
<path opacity="0.3" d="M71.771 89.677V103.092C70.232 104.876 68.662 106.415 67.163 107.73C61.77 112.45 53.819 115.335 45.735 115.477V102.551L71.771 89.677Z" fill="#F1B69A"/>
<path d="M11.473 57.881C10.703 67.634 9.92599 90.403 21.438 103.834C32.95 117.265 50.916 116.086 61.912 106.473C69.309 100.006 78.131 85.162 77.669 69.873C77.091 50.717 68.315 44.929 54.404 41.811C40.494 38.694 12.761 41.575 11.473 57.881Z" fill="#F1B69A"/>
<path opacity="0.3" d="M33.965 87.381C38.62 89.042 41.007 84.803 43.004 86.064C45.001 87.325 41.371 92.498 36.272 89.46C33.989 88.101 32.615 86.9 33.965 87.381Z" fill="#F1B69A"/>
<path d="M72.437 73.839C75.342 58.411 89.45 61.717 90.28 71.635C91.11 81.553 82.396 93.675 72.437 91.838V73.839Z" fill="#F1B69A"/>
<path opacity="0.3" d="M76.217 74.867C79.377 68.283 85.894 68.236 86.165 73.302C86.436 78.368 78.676 86.082 76.217 85.827C73.759 85.571 76.217 74.867 76.217 74.867Z" fill="#F1B69A"/>
<path d="M76.217 76.071C77.907 69.721 83.118 68.528 85.226 70.885C87.335 73.242 85.558 78.276 84.18 79.969" stroke="#E07E61" stroke-miterlimit="10" stroke-linecap="round"/>
<path d="M29.561 74.845C29.561 77.422 28.374 79.511 26.91 79.511C25.446 79.511 24.259 77.422 24.259 74.845C24.259 72.268 25.446 70.179 26.91 70.179C28.374 70.179 29.561 72.268 29.561 74.845Z" fill="#150A08"/>
<path d="M28.261 61.727C25.445 59.13 21.335 59.672 21.44 63.129C21.546 66.586 27.085 65.182 28.857 64.629C30.279 64.186 29.176 62.571 28.261 61.727Z" fill="#D88D48"/>
<path d="M51.785 74.845C51.785 77.422 52.972 79.511 54.436 79.511C55.9 79.511 57.087 77.422 57.087 74.845C57.087 72.268 55.9 70.179 54.436 70.179C52.972 70.179 51.785 72.268 51.785 74.845Z" fill="#150A08"/>
<path d="M49.754 60.753C53.922 58.704 60.139 60.165 60.086 63.693C60.033 67.221 51.633 64.561 48.943 63.603C46.786 62.835 48.399 61.419 49.754 60.753Z" fill="#D88D48"/>
<path d="M36.41 79.512C35.926 85.034 33.545 84.086 34.029 86.324C34.513 88.562 35.693 88.945 37.071 89.676" stroke="#E07E61" stroke-miterlimit="10" stroke-linecap="round"/>
<path d="M33.965 93.441C40.328 94.129 49.27 92.237 51.161 90.002" stroke="#E07E61" stroke-miterlimit="10" stroke-linecap="round"/>
<path opacity="0.3" d="M38.487 97.817C42.373 97.575 45.423 96.049 47.082 96.403C48.741 96.757 47.027 100.753 44.468 101.353C39.195 102.59 36.009 97.971 38.487 97.817Z" fill="#F1B69A"/>
<path d="M77.684 64.5C72.077 68.567 73.984 72.91 72.434 72.523C70.895 72.125 70.456 49.046 61.608 45.264C64.116 42.379 65.747 38.495 66.725 35.458C76.838 47.303 77.684 64.5 77.684 64.5Z" fill="#D88D48"/>
<path opacity="0.3" d="M77.684 64.5C72.077 68.567 73.984 72.91 72.434 72.523C70.895 72.125 70.456 49.046 61.608 45.264C64.116 42.379 65.747 38.495 66.725 35.458C76.838 47.303 77.684 64.5 77.684 64.5Z" fill="#D88D48"/>
<path d="M18.613 34.04C12.672 55.163 46.405 59.407 52.017 57.787C57.629 56.167 55.499 54.003 55.499 54.003C55.499 54.003 65.56 55.628 69.609 42.359C73.658 29.091 39.79 23.268 28.92 27.053C18.049 30.838 19.576 30.615 18.613 34.04Z" fill="#D88D48"/>
<path d="M63.34 142.532L65.645 172.94" stroke="white" stroke-miterlimit="10"/>
<path d="M47.739 140.662L42.563 170.347" stroke="white" stroke-miterlimit="10"/>
<path d="M42.563 174.376C43.9923 174.376 45.151 173.217 45.151 171.788C45.151 170.359 43.9923 169.2 42.563 169.2C41.1337 169.2 39.975 170.359 39.975 171.788C39.975 173.217 41.1337 174.376 42.563 174.376Z" fill="white"/>
<path d="M68.232 171.788C68.232 173.217 67.073 174.376 65.644 174.376C64.215 174.376 63.056 173.217 63.056 171.788C63.056 170.359 64.215 169.2 65.644 169.2C67.074 169.2 68.232 170.359 68.232 171.788Z" fill="white"/>
</svg>
