<svg width="130" height="186" viewBox="0 0 130 186" fill="none" xmlns="http://www.w3.org/2000/svg">
<path d="M102.45 60.101C102.032 77.135 82.613 91.478 73.937 98.349C65.262 105.23 14.445 65.229 14.445 65.229C9.07296 53.995 -5.07606 34.199 2.96694 29.662C5.62794 28.163 10.6629 33.026 11.3259 33.678C11.3259 33.688 11.346 33.698 11.346 33.698L11.387 33.739C11.061 33.229 -0.764074 14.666 4.94393 9.783C10.6019 4.931 29.634 9.579 30.429 9.773C29.96 9.528 18.6139 3.53401 30.4489 1.10801C42.5389 -1.36899 70.2159 7.306 82.4069 20.109C94.5989 32.923 92.366 42.699 92.366 42.699C92.366 42.699 92.764 42.709 93.406 42.862C96.048 43.475 102.776 46.39 102.45 60.101Z" fill="#D76A40"/>
<path opacity="0.3" d="M102.45 60.101C102.032 77.135 82.613 91.478 73.937 98.349C65.262 105.23 14.445 65.229 14.445 65.229C9.07296 53.995 -5.07606 34.199 2.96694 29.662C5.62794 28.163 10.6629 33.026 11.3259 33.678C11.3259 33.688 11.346 33.698 11.346 33.698C15.923 39.753 20.9889 44.606 25.3319 44.789C33.8339 45.156 45.496 42.975 56.403 42.699C67.31 42.434 87.6469 52.026 93.4069 42.862C96.0479 43.475 102.776 46.39 102.45 60.101Z" fill="#D76A40"/>
<path d="M110.717 133.141C107.761 133.243 104.896 133.967 102.46 135.659C91.868 142.999 94.417 149.553 90.869 159.737C88.575 166.333 88.698 178.218 89.065 185.783H23.08C23.08 185.783 19.115 178.388 19.118 159.029C19.119 149.89 27.259 136.495 26.719 132.275C37.161 122.552 51.929 120.307 51.929 120.307C51.929 139.686 74.621 141.826 77.964 120.307C77.964 120.307 95.3339 119.511 110.717 133.141Z" fill="#9FC9C1"/>
<path d="M83.88 120.302C85.231 139.486 71.573 144.966 63.281 144.532C54.989 144.097 40.756 136.094 43.264 122.636C43.264 122.636 67.472 113.665 83.88 120.302Z" fill="#D76A40"/>
<path d="M99.4069 144.532C86.3979 151.316 89.99 185.787 89.99 185.787" stroke="#80AFA6" stroke-miterlimit="10"/>
<path opacity="0.26" d="M18.076 165.21C19.334 160.441 24.94 158.01 29.861 158.346C34.782 158.683 39.303 161.019 43.94 162.699C48.578 164.378 53.92 165.372 58.305 163.113C62.664 160.868 66.243 155.528 71.004 156.7C72.523 157.074 73.7829 158.094 75.1129 158.917C83.1499 163.891 93.503 161.672 102.65 159.295" stroke="white" stroke-width="3" stroke-miterlimit="10"/>
<path opacity="0.26" d="M15.749 177.895C21.907 173.422 30.222 172.077 37.476 174.379C42.561 175.993 47.511 179.317 52.756 178.343C56.862 177.581 60.09 174.3 64.114 173.185C68.413 171.994 72.9349 173.415 77.3109 174.28C84.6989 175.741 92.4 175.596 99.728 173.858C102.966 173.09 106.317 172.01 109.549 172.799" stroke="white" stroke-width="3" stroke-miterlimit="10"/>
<path d="M22.46 75.839C20.665 60.411 11.944 63.717 11.431 73.635C10.918 83.553 16.304 95.675 22.46 93.838V75.839Z" fill="#E89989"/>
<path d="M77.968 91.675V120.311C74.623 141.825 51.93 139.683 51.93 120.311V104.548L77.968 91.675Z" fill="#F1B69A"/>
<path opacity="0.3" d="M77.964 91.677V105.092C76.425 106.876 74.855 108.415 73.356 109.73C67.963 114.45 60.0119 117.335 51.9279 117.477V104.551L77.964 91.677Z" fill="#F1B69A"/>
<path d="M17.666 59.881C16.896 69.634 16.1189 92.403 27.6309 105.834C39.1439 119.265 57.1099 118.086 68.1049 108.473C75.5019 102.006 84.3239 87.162 83.8619 71.873C83.2839 52.717 74.5079 46.929 60.5969 43.811C46.6869 40.694 18.954 43.575 17.666 59.881Z" fill="#F1B69A"/>
<path opacity="0.3" d="M40.158 89.381C44.813 91.042 47.2 86.803 49.197 88.064C51.194 89.325 47.564 94.498 42.465 91.46C40.182 90.101 38.808 88.9 40.158 89.381Z" fill="#F1B69A"/>
<path d="M78.63 75.839C81.535 60.411 95.644 63.717 96.473 73.635C97.302 83.553 88.589 95.675 78.63 93.838V75.839Z" fill="#F1B69A"/>
<path opacity="0.3" d="M82.4099 76.867C85.5699 70.283 92.0869 70.236 92.3579 75.302C92.6289 80.368 84.8689 88.082 82.4099 87.827C79.9509 87.571 82.4099 76.867 82.4099 76.867Z" fill="#F1B69A"/>
<path d="M82.4099 78.071C84.0999 71.721 89.311 70.528 91.419 72.885C93.528 75.242 91.751 80.276 90.373 81.969" stroke="#E07E61" stroke-miterlimit="10" stroke-linecap="round"/>
<path d="M35.754 76.845C35.754 79.422 34.567 81.511 33.103 81.511C31.639 81.511 30.452 79.422 30.452 76.845C30.452 74.268 31.639 72.179 33.103 72.179C34.567 72.179 35.754 74.268 35.754 76.845Z" fill="#150A08"/>
<path d="M34.454 63.727C31.638 61.13 27.528 61.672 27.633 65.129C27.738 68.586 33.278 67.182 35.05 66.629C36.472 66.186 35.369 64.571 34.454 63.727Z" fill="#D76A40"/>
<path d="M57.978 76.845C57.978 79.422 59.165 81.511 60.629 81.511C62.093 81.511 63.28 79.422 63.28 76.845C63.28 74.268 62.093 72.179 60.629 72.179C59.165 72.179 57.978 74.268 57.978 76.845Z" fill="#150A08"/>
<path d="M55.948 62.753C60.116 60.704 66.333 62.165 66.28 65.693C66.227 69.221 57.827 66.561 55.137 65.603C52.979 64.835 54.592 63.419 55.948 62.753Z" fill="#D76A40"/>
<path d="M42.603 81.512C42.119 87.034 39.7379 86.086 40.2219 88.324C40.7059 90.562 41.8869 90.945 43.2639 91.676" stroke="#E07E61" stroke-miterlimit="10" stroke-linecap="round"/>
<path d="M40.158 95.441C46.521 96.129 55.463 94.237 57.354 92.002" stroke="#E07E61" stroke-miterlimit="10" stroke-linecap="round"/>
<path opacity="0.3" d="M44.68 99.817C48.566 99.575 51.616 98.049 53.275 98.403C54.934 98.757 53.22 102.753 50.661 103.353C45.388 104.59 42.202 99.971 44.68 99.817Z" fill="#F1B69A"/>
<path d="M83.877 66.5C78.27 70.567 80.177 74.91 78.627 74.523C77.088 74.125 76.649 51.046 67.801 47.264C70.309 44.379 71.94 40.495 72.918 37.458C83.031 49.303 83.877 66.5 83.877 66.5Z" fill="#D76A40"/>
<path opacity="0.3" d="M83.877 66.5C78.27 70.567 80.177 74.91 78.627 74.523C77.088 74.125 76.649 51.046 67.801 47.264C70.309 44.379 71.94 40.495 72.918 37.458C83.031 49.303 83.877 66.5 83.877 66.5Z" fill="#D76A40"/>
<path d="M73.3189 40.938C70.3039 52.12 51.4279 53.975 44.6899 54.594C37.9509 55.213 41.7109 49.915 41.7109 49.915C41.7109 49.915 30.4249 56.9 23.1329 49.915C15.8409 42.93 79.2979 18.761 73.3189 40.938Z" fill="#D76A40"/>
<path d="M129.606 185.782H89.065C89.065 150.33 91.868 142.998 102.46 135.658C104.896 133.966 107.761 133.242 110.717 133.14C110.717 133.14 110.717 133.13 110.727 133.14C114.407 136.382 117.965 140.459 121.145 145.556C129.78 159.41 129.606 185.782 129.606 185.782Z" fill="#5B4850"/>
<path d="M22.548 157.505C20.66 176.376 23.08 185.783 23.08 185.783H6.64697C6.64697 185.783 5.25002 160.879 19.705 140.542C22.009 137.3 24.374 134.568 26.718 132.275C27.259 136.494 23.458 148.411 22.548 157.505Z" fill="#5B4850"/>
</svg>
