<svg width="131" height="179" viewBox="0 0 131 179" fill="none" xmlns="http://www.w3.org/2000/svg">
<path d="M130.025 178.787H7.064C7.064 178.787 5.675 153.874 20.127 133.544C35.112 112.461 52.351 113.311 52.351 113.311C52.351 132.683 75.044 134.825 78.389 113.311C78.389 113.311 105.048 112.079 121.568 138.561C130.206 152.412 130.025 178.787 130.025 178.787Z" fill="#9FC9C1"/>
<path d="M84.301 113.302C91.199 122.369 79.051 142.139 79.051 142.139L63.702 132.254L49.178 140.724C49.178 140.724 42.916 127.426 47.098 113.302C47.098 113.302 69.438 108.4 84.301 113.302Z" fill="white"/>
<path d="M99.828 137.532C86.819 144.316 90.411 178.787 90.411 178.787" stroke="#80AFA6" stroke-miterlimit="10"/>
<path d="M28.052 140.724C21.368 154.293 22.881 178.786 22.881 178.786" stroke="#80AFA6" stroke-miterlimit="10"/>
<path d="M79.051 86.838C123.277 49.003 96.231 22.501 88 27.625C88 27.625 89.033 8.595 65.371 2.739C41.709 -3.116 37.799 3.83701 42.133 7.49701C42.133 7.49701 23.649 3.105 11.819 12.255C-0.0110159 21.404 13.164 19.477 13.164 19.477C13.164 19.477 2.18399 24.384 0.719985 35.703C-0.744015 47.021 15.359 50.681 15.359 50.681C15.359 50.681 10.393 59.23 19.222 79.032C28.052 98.834 58.234 104.647 79.051 86.838Z" fill="#383C3F"/>
<path opacity="0.3" d="M80.03 85.002C59.097 102.682 28.048 98.839 19.22 79.032C10.392 59.225 15.356 50.683 15.356 50.683C15.356 50.683 -0.740006 47.023 0.717994 35.708C1.03399 33.241 1.809 31.08 2.818 29.204C7.232 32.058 14.256 35.106 22.88 33.689C37.896 31.232 51.434 28.196 62.321 26.657C73.198 25.118 80.608 43.078 87.998 27.624C96.235 22.496 122.781 48.895 80.03 85.002Z" fill="#383C3F"/>
<path d="M22.881 68.839C21.086 53.411 12.365 56.717 11.852 66.635C11.339 76.553 16.725 88.675 22.881 86.838V68.839Z" fill="#E89989"/>
<path d="M78.389 84.675V113.311C75.044 134.825 52.351 132.683 52.351 113.311V97.548L78.389 84.675Z" fill="#F1B69A"/>
<path opacity="0.3" d="M78.385 84.677V98.092C76.846 99.876 75.276 101.415 73.777 102.73C68.384 107.45 60.433 110.335 52.349 110.477V97.551L78.385 84.677Z" fill="#F1B69A"/>
<path d="M18.087 52.881C17.317 62.634 16.54 85.403 28.052 98.834C39.564 112.265 57.531 111.086 68.526 101.473C75.923 95.006 84.745 80.162 84.283 64.873C83.705 45.717 74.929 39.929 61.018 36.811C47.108 33.694 19.375 36.575 18.087 52.881Z" fill="#F1B69A"/>
<path opacity="0.3" d="M40.579 82.381C45.234 84.042 47.621 79.803 49.618 81.064C51.615 82.325 47.985 87.498 42.886 84.46C40.603 83.101 39.229 81.9 40.579 82.381Z" fill="#F1B69A"/>
<path d="M79.051 68.839C81.956 53.411 96.064 56.717 96.894 66.635C97.724 76.553 89.01 88.675 79.051 86.838V68.839Z" fill="#F1B69A"/>
<path opacity="0.3" d="M82.831 69.867C85.991 63.283 92.508 63.236 92.779 68.302C93.05 73.368 85.29 81.082 82.831 80.827C80.373 80.571 82.831 69.867 82.831 69.867Z" fill="#F1B69A"/>
<path d="M82.831 71.071C84.521 64.721 89.732 63.528 91.84 65.885C93.949 68.242 92.172 73.276 90.794 74.969" stroke="#E07E61" stroke-miterlimit="10" stroke-linecap="round"/>
<path d="M36.175 69.845C36.175 72.422 34.988 74.511 33.524 74.511C32.06 74.511 30.873 72.422 30.873 69.845C30.873 67.268 32.06 65.179 33.524 65.179C34.988 65.179 36.175 67.268 36.175 69.845Z" fill="#150A08"/>
<path d="M34.875 56.727C32.059 54.13 27.949 54.672 28.054 58.129C28.16 61.586 33.699 60.182 35.471 59.629C36.893 59.186 35.79 57.571 34.875 56.727Z" fill="#383C3F"/>
<path d="M58.399 69.845C58.399 72.422 59.586 74.511 61.05 74.511C62.514 74.511 63.701 72.422 63.701 69.845C63.701 67.268 62.514 65.179 61.05 65.179C59.586 65.179 58.399 67.268 58.399 69.845Z" fill="#150A08"/>
<path d="M56.369 55.753C60.537 53.704 66.754 55.165 66.701 58.693C66.648 62.221 58.249 59.561 55.558 58.603C53.4 57.835 55.014 56.419 56.369 55.753Z" fill="#383C3F"/>
<path d="M43.024 74.512C42.54 80.034 40.159 79.086 40.643 81.324C41.127 83.562 42.308 83.945 43.685 84.676" stroke="#E07E61" stroke-miterlimit="10" stroke-linecap="round"/>
<path d="M40.579 88.441C46.942 89.129 55.884 87.237 57.775 85.002" stroke="#E07E61" stroke-miterlimit="10" stroke-linecap="round"/>
<path opacity="0.3" d="M45.101 92.817C48.987 92.575 52.037 91.049 53.696 91.403C55.355 91.757 53.641 95.753 51.082 96.353C45.809 97.59 42.623 92.971 45.101 92.817Z" fill="#F1B69A"/>
<path d="M73.339 30.458C72.36 33.496 70.729 37.38 68.222 40.264C68.222 40.264 60.148 49.153 49.18 50.54C38.894 51.835 43.064 46.187 43.624 45.474C42.89 46.177 35.224 53.507 26.753 55.046C18.842 56.483 23.124 49.623 24.174 48.073C22.951 49.786 16.743 57.818 10.361 53.904C3.256 49.551 10.361 21.304 46.305 19.53C59.18 18.898 67.702 23.842 73.339 30.458Z" fill="#383C3F"/>
<path d="M84.298 59.5C78.691 63.567 80.598 67.91 79.048 67.523C77.509 67.125 77.07 44.046 68.222 40.264C70.73 37.379 72.361 33.495 73.339 30.458C83.452 42.303 84.298 59.5 84.298 59.5Z" fill="#383C3F"/>
<path opacity="0.3" d="M84.298 59.5C78.691 63.567 80.598 67.91 79.048 67.523C77.509 67.125 77.07 44.046 68.222 40.264C70.73 37.379 72.361 33.495 73.339 30.458C83.452 42.303 84.298 59.5 84.298 59.5Z" fill="#383C3F"/>
</svg>
