<svg width="124" height="171" viewBox="0 0 124 171" fill="none" xmlns="http://www.w3.org/2000/svg">
<path d="M103.457 90.031C101.479 96.259 96.026 99.715 87.626 102.264C81.55 104.099 73.915 105.465 64.934 107.055C46.585 110.307 23.771 107.045 16.38 100.551C15.157 99.481 14.351 98.319 14.066 97.075C12.945 92.202 16.941 92.386 16.757 77.248C16.665 70.092 12.71 62.701 9.19299 54.801C5.27899 46.004 1.91399 36.574 5.07499 26.115C5.16699 25.799 5.26899 25.483 5.38099 25.167C11.854 6.053 35.779 -0.827997 57.044 0.447003C86.871 2.251 104.955 32.486 97.962 55.107C90.98 77.727 105.741 82.875 103.457 90.031Z" fill="#383C3F"/>
<path opacity="0.3" d="M87.626 102.264C81.55 104.099 73.915 105.465 64.934 107.055C46.585 110.307 23.771 107.045 16.38 100.551L18.582 69.205C18.582 69.205 13.811 61.855 9.19299 54.801C5.27899 46.004 1.91399 36.574 5.07499 26.115C5.16699 25.799 5.26899 25.483 5.38099 25.167C16.839 26.411 44.179 29.153 54.21 28.337C67.054 27.297 76.025 29.948 76.025 29.948C83.202 37.96 85.689 47.757 84.639 57.033C84.17 61.192 82.988 65.239 81.193 68.99C75.587 80.703 83.008 98.054 87.626 102.264Z" fill="#383C3F"/>
<path d="M123.218 170.314H0.258C0.258 170.314 -1.131 145.401 13.321 125.071C28.306 103.987 45.545 104.838 45.545 104.838C45.545 124.21 68.238 126.352 71.583 104.838C71.583 104.838 98.242 103.606 114.763 130.088C123.399 143.939 123.218 170.314 123.218 170.314Z" fill="#9FC9C1"/>
<path d="M74.496 104.838C84.348 105.969 80.757 115.687 75.157 114.518C75.157 114.518 81.341 120.656 75.157 125.624C68.973 130.593 64.633 124.163 64.633 124.163C64.633 124.163 62.758 132.347 53.882 130.885C45.006 129.424 46.818 120.181 46.818 120.181C46.818 120.181 42.468 121.965 39.791 117.949C37.115 113.933 43.253 111.01 43.253 111.01C43.253 111.01 41.227 111.071 41.217 107.679C41.207 104.287 56.489 101.889 59.808 102.649C63.128 103.411 74.496 104.838 74.496 104.838Z" fill="white"/>
<path d="M93.021 129.059C80.012 135.844 83.603 170.314 83.603 170.314" stroke="#80AFA6" stroke-miterlimit="10"/>
<path d="M21.245 132.251C14.561 145.82 16.074 170.314 16.074 170.314" stroke="#80AFA6" stroke-miterlimit="10"/>
<path d="M16.074 60.366C14.279 44.938 5.558 48.244 5.045 58.162C4.532 68.08 9.91801 80.202 16.074 78.365V60.366Z" fill="#E89989"/>
<path d="M71.582 76.202V104.838C68.237 126.352 45.544 124.21 45.544 104.838V89.075L71.582 76.202Z" fill="#F1B69A"/>
<path opacity="0.3" d="M71.578 76.204V89.619C70.039 91.403 68.469 92.942 66.97 94.257C61.577 98.977 53.626 101.862 45.543 102.004V89.078L71.578 76.204Z" fill="#F1B69A"/>
<path d="M11.28 44.408C10.51 54.161 9.73199 76.93 21.245 90.361C32.757 103.792 50.723 102.613 61.719 92.999C69.116 86.532 77.938 71.688 77.476 56.4C76.898 37.244 68.122 31.456 54.211 28.338C40.301 25.221 12.568 28.102 11.28 44.408Z" fill="#F1B69A"/>
<path opacity="0.3" d="M33.772 73.908C38.427 75.569 40.814 71.33 42.811 72.591C44.808 73.852 41.178 79.025 36.079 75.988C33.796 74.628 32.422 73.427 33.772 73.908Z" fill="#F1B69A"/>
<path d="M72.244 60.366C75.149 44.938 89.257 48.244 90.087 58.162C90.917 68.08 82.203 80.202 72.244 78.365V60.366Z" fill="#F1B69A"/>
<path opacity="0.3" d="M76.024 61.394C79.184 54.81 85.701 54.762 85.972 59.828C86.243 64.894 78.483 72.608 76.024 72.353C73.566 72.098 76.024 61.394 76.024 61.394Z" fill="#F1B69A"/>
<path d="M83.988 66.496C85.365 64.802 87.142 59.769 85.034 57.412C82.926 55.055 77.715 56.248 76.025 62.598" stroke="#E07E61" stroke-miterlimit="10" stroke-linecap="round"/>
<path d="M26.717 66.038C28.1811 66.038 29.368 63.949 29.368 61.372C29.368 58.795 28.1811 56.706 26.717 56.706C25.2529 56.706 24.066 58.795 24.066 61.372C24.066 63.949 25.2529 66.038 26.717 66.038Z" fill="#150A08"/>
<path d="M28.068 48.254C25.252 45.657 21.142 46.199 21.247 49.656C21.353 53.113 26.892 51.709 28.664 51.156C30.086 50.713 28.983 49.098 28.068 48.254Z" fill="#383C3F"/>
<path d="M54.244 66.038C55.7081 66.038 56.895 63.949 56.895 61.372C56.895 58.795 55.7081 56.706 54.244 56.706C52.7799 56.706 51.593 58.795 51.593 61.372C51.593 63.949 52.7799 66.038 54.244 66.038Z" fill="#150A08"/>
<path d="M49.561 47.28C53.729 45.231 59.946 46.692 59.893 50.22C59.84 53.748 51.44 51.088 48.75 50.13C46.593 49.362 48.207 47.946 49.561 47.28Z" fill="#383C3F"/>
<path d="M36.217 66.039C35.733 71.561 33.352 70.613 33.836 72.851C34.32 75.089 35.501 75.472 36.878 76.203" stroke="#E07E61" stroke-miterlimit="10" stroke-linecap="round"/>
<path d="M33.772 79.968C40.135 80.656 49.077 78.764 50.968 76.529C50.968 76.529 47.4 85.34 42.492 85.483C37.584 85.626 33.772 79.968 33.772 79.968Z" fill="white"/>
<path opacity="0.3" d="M39.706 87.964C43.592 87.722 46.642 86.196 48.301 86.55C49.96 86.903 48.246 90.9 45.687 91.5C40.414 92.738 37.228 88.119 39.706 87.964Z" fill="#F1B69A"/>
<path d="M54.244 56.706C56.845 57.123 59.894 56.706 59.894 56.706L55.519 59.939L54.244 56.706Z" fill="#150A08"/>
<path d="M26.89 56.706C24.289 57.123 21.24 56.706 21.24 56.706L25.614 59.939L26.89 56.706Z" fill="#150A08"/>
<path d="M16.074 27.23C8.227 36.246 8.728 49.169 8.728 49.169L21.248 49.657L26.891 31.82L28.069 48.255L43.37 49.169L45.546 32.052L53.797 49.657C53.797 49.657 69.396 53.193 77.495 46.344C77.495 46.344 71.589 21.708 51.593 19.485C31.597 17.26 18.717 24.193 16.074 27.23Z" fill="#383C3F"/>
</svg>
